999
Dxf file generated by netDxf http://netdxf.codeplex.com, Copyright(C) 2013 Daniel Carvajal, Licensed under LGPL
0
SECTION
2
HEADER
9
$ACADVER
1
AC1024
9
$DWGCODEPAGE
3
ANSI_1252
9
$HANDSEED
5
43d
9
$ANGBASE
50
0
9
$ANGDIR
70
0
9
$ATTMODE
70
1
9
$AUNITS
70
0
9
$AUPREC
70
0
9
$LUNITS
70
2
9
$LUPREC
70
4
9
$EXTNAMES
290
1
9
$INSUNITS
70
4
9
$LASTSAVEDBY
1
Carvajal
9
$LTSCALE
40
1
9
$LWDISPLAY
290
1
9
$PDMODE
70
66
9
$PDSIZE
40
0
9
$PLINEGEN
70
0
0
ENDSEC
0
SECTION
2
CLASSES
0
CLASS
1
RASTERVARIABLES
2
AcDbRasterVariables
3
ISM
90
0
91
1
280
0
281
0
0
CLASS
1
IMAGEDEF
2
AcDbRasterImageDef
3
ISM
90
0
91
1
280
0
281
0
0
CLASS
1
IMAGEDEF_REACTOR
2
AcDbRasterImageDefReactor
3
ISM
90
1
91
1
280
0
281
0
0
CLASS
1
IMAGE
2
AcDbRasterImage
3
ISM
90
127
91
1
280
0
281
1
0
ENDSEC
0
SECTION
2
TABLES
0
TABLE
2
VPORT
5
433
100
AcDbSymbolTable
0
VPORT
5
1
100
AcDbSymbolTableRecord
100
AcDbViewportTableRecord
2
*Active
70
0
10
0
20
0
11
1
21
1
12
-1
22
1
13
0
23
0
14
0.5
24
0.5
15
10
25
10
16
0
26
0
36
1
17
0
27
0
37
0
0
ENDTAB
0
TABLE
2
LTYPE
5
434
100
AcDbSymbolTable
0
LTYPE
5
14
100
AcDbSymbolTableRecord
100
AcDbLinetypeTableRecord
70
0
2
ByBlock
3

72
65
73
0
40
0
0
LTYPE
5
15
100
AcDbSymbolTableRecord
100
AcDbLinetypeTableRecord
70
0
2
ByLayer
3

72
65
73
0
40
0
0
LTYPE
5
16
100
AcDbSymbolTableRecord
100
AcDbLinetypeTableRecord
70
0
2
Continuous
3
Solid line
72
65
73
0
40
0
0
LTYPE
5
2AF
100
AcDbSymbolTableRecord
100
AcDbLinetypeTableRecord
70
0
2
DASHED
3
Dashed __ __ __ __ __ __ __ __ __ __ __ __ __ _
72
65
73
2
40
19.05
49
12.7
74
0
49
-6.35
74
0
0
ENDTAB
0
TABLE
2
LAYER
5
435
100
AcDbSymbolTable
0
LAYER
5
10
100
AcDbSymbolTableRecord
100
AcDbLayerTableRecord
2
0
70
0
62
7
6
Continuous
290
1
370
-3
390
0
0
LAYER
5
22D
100
AcDbSymbolTableRecord
100
AcDbLayerTableRecord
2
Defpoints
70
0
62
7
6
Continuous
290
0
370
-3
390
0
0
LAYER
5
29D
100
AcDbSymbolTableRecord
100
AcDbLayerTableRecord
2
Layer1
70
0
62
40
6
Continuous
290
1
370
-3
390
0
0
LAYER
5
2A0
100
AcDbSymbolTableRecord
100
AcDbLayerTableRecord
2
Layer2
70
0
62
53
420
9090378
6
Continuous
290
1
370
-3
390
0
0
LAYER
5
2B0
100
AcDbSymbolTableRecord
100
AcDbLayerTableRecord
2
EntityProperties
70
0
62
161
6
Continuous
290
1
370
-3
390
0
0
LAYER
5
3D2
100
AcDbSymbolTableRecord
100
AcDbLayerTableRecord
2
Groups
70
0
62
132
6
Continuous
290
1
370
-3
390
0
0
ENDTAB
0
TABLE
2
STYLE
5
436
100
AcDbSymbolTable
0
STYLE
5
11
100
AcDbSymbolTableRecord
100
AcDbTextStyleTableRecord
2
Standard
3
simplex.shx
70
0
71
0
40
0
41
1
42
0
50
0
0
STYLE
5
38E
100
AcDbSymbolTableRecord
100
AcDbTextStyleTableRecord
2
MyTextStyle
3
arial.ttf
70
0
71
0
40
0
41
1
42
0
50
0
0
ENDTAB
0
TABLE
2
DIMSTYLE
5
437
100
AcDbSymbolTable
100
AcDbDimStyleTable
0
DIMSTYLE
105
1B0
100
AcDbSymbolTableRecord
100
AcDbDimStyleTableRecord
2
Standard
70
0
3
<>
41
0.18
42
0.0625
44
0.18
140
0.18
147
0.09
73
0
74
0
77
1
271
2
275
0
278
46
280
0
340
11
0
DIMSTYLE
105
137
100
AcDbSymbolTableRecord
100
AcDbDimStyleTableRecord
2
Annotative
70
0
3
<>
41
2.5
42
0.625
44
1.25
140
2.5
147
0.625
73
0
74
0
77
1
271
2
275
0
278
32
280
0
340
11
0
DIMSTYLE
105
27
100
AcDbSymbolTableRecord
100
AcDbDimStyleTableRecord
2
ISO-25
70
0
3
<>
41
2.5
42
0.625
44
1.25
140
2.5
147
0.625
73
0
74
0
77
1
271
2
275
0
278
32
280
0
340
11
0
ENDTAB
0
TABLE
2
VIEW
5
438
100
AcDbSymbolTable
0
ENDTAB
0
TABLE
2
UCS
5
439
100
AcDbSymbolTable
0
ENDTAB
0
TABLE
2
APPID
5
43a
100
AcDbSymbolTable
0
APPID
5
12
100
AcDbSymbolTableRecord
100
AcDbRegAppTableRecord
2
ACAD
70
0
0
APPID
5
9E
100
AcDbSymbolTableRecord
100
AcDbRegAppTableRecord
2
ACAD_PSEXT
70
0
0
APPID
5
133
100
AcDbSymbolTableRecord
100
AcDbRegAppTableRecord
2
AcadAnnoPO
70
0
0
APPID
5
134
100
AcDbSymbolTableRecord
100
AcDbRegAppTableRecord
2
AcadAnnotative
70
0
0
APPID
5
135
100
AcDbSymbolTableRecord
100
AcDbRegAppTableRecord
2
ACAD_DSTYLE_DIMJAG
70
0
0
APPID
5
136
100
AcDbSymbolTableRecord
100
AcDbRegAppTableRecord
2
ACAD_DSTYLE_DIMTALN
70
0
0
APPID
5
165
100
AcDbSymbolTableRecord
100
AcDbRegAppTableRecord
2
ACAD_MLEADERVER
70
0
0
APPID
5
217
100
AcDbSymbolTableRecord
100
AcDbRegAppTableRecord
2
ACAD_NAV_VCDISPLAY
70
0
0
APPID
5
23D
100
AcDbSymbolTableRecord
100
AcDbRegAppTableRecord
2
GradientColor1ACI
70
0
0
APPID
5
23E
100
AcDbSymbolTableRecord
100
AcDbRegAppTableRecord
2
GradientColor2ACI
70
0
0
APPID
5
25B
100
AcDbSymbolTableRecord
100
AcDbRegAppTableRecord
2
ACAUTHENVIRON
70
0
0
APPID
5
260
100
AcDbSymbolTableRecord
100
AcDbRegAppTableRecord
2
AcDbDynamicBlockTrueName
70
0
0
APPID
5
261
100
AcDbSymbolTableRecord
100
AcDbRegAppTableRecord
2
AcDbDynamicBlockGUID
70
0
0
APPID
5
271
100
AcDbSymbolTableRecord
100
AcDbRegAppTableRecord
2
ACAD_EXEMPT_FROM_CAD_STANDARDS
70
0
0
APPID
5
29E
100
AcDbSymbolTableRecord
100
AcDbRegAppTableRecord
2
AcAecLayerStandard
70
0
0
APPID
5
29F
100
AcDbSymbolTableRecord
100
AcDbRegAppTableRecord
2
AcCmTransparency
70
0
0
ENDTAB
0
TABLE
2
BLOCK_RECORD
5
43b
100
AcDbSymbolTable
0
BLOCK_RECORD
5
1F
100
AcDbSymbolTableRecord
100
AcDbBlockTableRecord
2
*Model_Space
340
0
0
BLOCK_RECORD
5
D2
100
AcDbSymbolTableRecord
100
AcDbBlockTableRecord
2
*Paper_Space
340
0
0
BLOCK_RECORD
5
D6
100
AcDbSymbolTableRecord
100
AcDbBlockTableRecord
2
*Paper_Space0
340
0
0
BLOCK_RECORD
5
22E
100
AcDbSymbolTableRecord
100
AcDbBlockTableRecord
2
*D1
340
0
0
BLOCK_RECORD
5
24E
100
AcDbSymbolTableRecord
100
AcDbBlockTableRecord
2
MyBlock
340
0
0
ENDTAB
0
ENDSEC
0
SECTION
2
BLOCKS
0
BLOCK
5
20
100
AcDbEntity
8
0
100
AcDbBlockBegin
2
*Model_Space
70
0
10
0
20
0
30
0
3
*Model_Space
0
ENDBLK
5
21
100
AcDbEntity
8
0
100
AcDbBlockEnd
0
BLOCK
5
D4
100
AcDbEntity
8
0
100
AcDbBlockBegin
2
*Paper_Space
70
0
10
0
20
0
30
0
3
*Paper_Space
0
ENDBLK
5
D5
100
AcDbEntity
8
0
100
AcDbBlockEnd
0
BLOCK
5
D8
100
AcDbEntity
8
0
100
AcDbBlockBegin
2
*Paper_Space0
70
0
10
0
20
0
30
0
3
*Paper_Space0
0
ENDBLK
5
D9
100
AcDbEntity
8
0
100
AcDbBlockEnd
0
BLOCK
5
22F
100
AcDbEntity
8
0
100
AcDbBlockBegin
2
*D1
70
1
10
0
20
0
30
0
3
*D1
0
LINE
5
2A1
100
AcDbEntity
8
Layer1
62
0
6
ByLayer
370
-2
78
1
60
0
100
AcDbLine
10
219.558058261758
20
20.4419417382416
30
0
11
209.116116523517
21
30.8838834764832
31
0
39
0
210
0
220
0
230
1
0
LINE
5
2A2
100
AcDbEntity
8
Layer1
62
0
6
ByLayer
370
-2
78
1
60
0
100
AcDbLine
10
279.558058261759
20
80.4419417382416
30
0
11
269.116116523517
21
90.8838834764832
31
0
39
0
210
0
220
0
230
1
0
LINE
5
2A3
100
AcDbEntity
8
Layer1
62
0
6
ByLayer
370
-2
78
1
60
0
100
AcDbLine
10
211.767766952966
20
31.7677669529664
30
0
11
268.232233047034
21
88.2322330470336
31
0
39
0
210
0
220
0
230
1
0
SOLID
5
2A4
100
AcDbEntity
8
Layer1
62
0
6
ByLayer
370
-1
78
1
60
0
100
AcDbTrace
10
211.473139127472
20
32.0623947784608
30
0
11
212.062394778461
21
31.473139127472
31
0
12
210
22
30
32
0
13
210
23
30
33
0
39
0
210
0
220
0
230
1
0
SOLID
5
2A5
100
AcDbEntity
8
Layer1
62
0
6
ByLayer
370
-1
78
1
60
0
100
AcDbTrace
10
267.937605221539
20
88.526860872528
30
0
11
268.526860872528
21
87.9376052215392
31
0
12
270
22
90
32
0
13
270
23
90
33
0
39
0
210
0
220
0
230
1
0
MTEXT
5
2A6
100
AcDbEntity
8
Layer1
62
0
6
ByLayer
370
-1
78
1
60
0
100
AcDbMText
10
238.495709908714
20
61.5042900912862
30
0
210
0
220
0
230
1
1
84,85
40
2.5
41
0
44
1
50
45
71
5
72
5
7
Standard
0
POINT
5
2A7
100
AcDbEntity
8
Defpoints
62
0
6
ByLayer
370
-1
78
1
60
0
100
AcDbPoint
10
220
20
20
30
0
39
0
210
0
220
0
230
1
50
360
0
POINT
5
2A8
100
AcDbEntity
8
Defpoints
62
0
6
ByLayer
370
-1
78
1
60
0
100
AcDbPoint
10
280
20
80
30
0
39
0
210
0
220
0
230
1
50
360
0
POINT
5
2A9
100
AcDbEntity
8
Defpoints
62
0
6
ByLayer
370
-1
78
1
60
0
100
AcDbPoint
10
270
20
90
30
0
39
0
210
0
220
0
230
1
50
360
0
ENDBLK
5
230
100
AcDbEntity
8
0
100
AcDbBlockEnd
0
BLOCK
5
24F
100
AcDbEntity
8
0
100
AcDbBlockBegin
2
MyBlock
70
2
10
0
20
0
30
0
3
MyBlock
0
ATTDEF
5
25F
100
AcDbEntity
8
0
62
256
6
ByLayer
370
-1
78
1
60
0
100
AcDbText
10
0
20
0
30
0
40
5
1
1
72
0
50
0
41
1
7
Standard
11
0
21
0
31
0
210
0
220
0
230
1
100
AcDbAttributeDefinition
3
Enter number:
2
ATTINFO
70
0
74
0
0
LINE
5
258
100
AcDbEntity
8
0
62
256
6
ByLayer
370
-1
78
1
60
0
100
AcDbLine
10
-40
20
-40
30
0
11
40
21
40
31
0
39
0
210
0
220
0
230
1
0
LINE
5
259
100
AcDbEntity
8
0
62
256
6
ByLayer
370
-1
78
1
60
0
100
AcDbLine
10
-40
20
40
30
0
11
40
21
-40
31
0
39
0
210
0
220
0
230
1
0
CIRCLE
5
25A
100
AcDbEntity
8
0
62
256
6
ByLayer
370
-1
78
1
60
0
100
AcDbCircle
10
0
20
0
30
0
40
30
39
0
210
0
220
0
230
1
0
ENDBLK
5
250
100
AcDbEntity
8
0
100
AcDbBlockEnd
0
ENDSEC
0
SECTION
2
ENTITIES
0
ARC
5
229
100
AcDbEntity
8
Layer1
62
256
6
ByLayer
370
-1
78
1
60
0
100
AcDbCircle
39
0
10
50
20
0
30
0
40
50
210
0
220
0
230
1
100
AcDbArc
50
0
51
180
0
CIRCLE
5
22A
100
AcDbEntity
8
Layer1
62
256
6
ByLayer
370
-1
78
1
60
0
100
AcDbCircle
10
150
20
50
30
0
40
50
39
0
210
0
220
0
230
1
0
ELLIPSE
5
23A
100
AcDbEntity
8
Layer1
62
256
6
ByLayer
370
-1
78
1
60
0
100
AcDbEllipse
10
350
20
50
30
0
11
-50
21
6.12303176911189E-15
31
0
210
0
220
0
230
1
40
0.6
41
0
42
6.28318530717959
0
POINT
5
274
100
AcDbEntity
8
Layer2
62
256
6
ByLayer
370
-1
78
1
60
0
100
AcDbPoint
10
350
20
-50
30
0
39
0
210
0
220
0
230
1
50
360
0
3DFACE
5
23B
100
AcDbEntity
8
Layer1
62
256
6
ByLayer
370
-1
78
1
60
0
100
AcDbFace
10
420
20
20
30
0
11
490
21
30
31
0
12
460
22
90
32
0
13
420
23
60
33
0
70
0
0
SPLINE
5
28E
100
AcDbEntity
8
Layer2
62
256
6
ByLayer
370
-1
78
1
60
0
100
AcDbSpline
70
4
71
3
72
8
73
4
40
0
40
0
40
0
40
0
40
1
40
1
40
1
40
1
41
1
10
710
20
-100
30
0
41
1
10
730
20
-20
30
0
41
1
10
770
20
-90
30
0
41
1
10
790
20
-10
30
0
0
SOLID
5
28D
100
AcDbEntity
8
Layer2
62
256
6
ByLayer
370
-1
78
1
60
0
100
AcDbTrace
10
610
20
-90
30
0
11
690
21
-80
31
0
12
620
22
-30
32
0
13
680
23
-10
33
0
39
0
210
0
220
0
230
1
0
INSERT
5
263
100
AcDbEntity
8
Layer1
62
256
6
ByLayer
370
-1
78
1
60
0
100
AcDbBlockReference
2
MyBlock
10
750
20
50
30
0
41
1
42
1
43
1
50
0
210
0
220
0
230
1
66
1
0
ATTRIB
5
264
100
AcDbEntity
8
0
62
256
6
ByLayer
370
-1
78
1
60
0
100
AcDbText
10
750
20
50
30
0
40
5
41
1
7
Standard
1
17
72
0
11
750
21
50
31
0
50
0
210
0
220
0
230
1
100
AcDbAttribute
2
ATTINFO
70
0
74
0
0
SEQEND
5
265
100
AcDbEntity
8
Layer1
0
LINE
5
24A
100
AcDbEntity
8
Layer1
62
256
6
ByLayer
370
-1
78
1
60
0
100
AcDbLine
10
800
20
0
30
0
11
900
21
100
31
0
39
0
210
0
220
0
230
1
0
LINE
5
2AA
100
AcDbEntity
8
EntityProperties
62
256
6
DASHED
370
-1
78
1.25
60
0
100
AcDbLine
10
0
20
-200
30
0
11
100
21
-100
31
0
39
0
210
0
220
0
230
1
0
LINE
5
2AB
100
AcDbEntity
8
EntityProperties
62
1
6
ByLayer
370
-1
78
1
60
0
100
AcDbLine
10
100
20
-200
30
0
11
200
21
-100
31
0
39
0
210
0
220
0
230
1
0
LINE
5
2AC
100
AcDbEntity
8
EntityProperties
62
256
6
ByLayer
370
50
78
1
60
0
100
AcDbLine
10
300
20
-200
30
0
11
400
21
-100
31
0
39
0
210
0
220
0
230
1
0
LINE
5
2B1
100
AcDbEntity
8
EntityProperties
62
195
420
10749689
6
ByLayer
370
-1
78
1
60
0
100
AcDbLine
10
200
20
-200
30
0
11
300
21
-100
31
0
39
0
210
0
220
0
230
1
0
LINE
5
3CD
100
AcDbEntity
8
Groups
62
256
6
ByLayer
370
-1
78
1
60
0
100
AcDbLine
10
400
20
-200
30
0
11
500
21
-100
31
0
39
0
210
0
220
0
230
1
0
LINE
5
3CE
100
AcDbEntity
8
Groups
62
256
6
ByLayer
370
-1
78
1
60
0
100
AcDbLine
10
500
20
-200
30
0
11
600
21
-100
31
0
39
0
210
0
220
0
230
1
0
LINE
5
3CF
100
AcDbEntity
8
Groups
62
256
6
ByLayer
370
-1
78
1
60
0
100
AcDbLine
10
600
20
-200
30
0
11
700
21
-100
31
0
39
0
210
0
220
0
230
1
0
LINE
5
3D0
100
AcDbEntity
8
Groups
62
2
6
ByLayer
370
-1
78
1
60
0
100
AcDbLine
10
700
20
-200
30
0
11
800
21
-100
31
0
39
0
210
0
220
0
230
1
0
LINE
5
3D1
100
AcDbEntity
8
Groups
62
2
6
ByLayer
370
-1
78
1
60
0
100
AcDbLine
10
800
20
-200
30
0
11
900
21
-100
31
0
39
0
210
0
220
0
230
1
0
LWPOLYLINE
5
23C
100
AcDbEntity
8
Layer2
62
256
6
ByLayer
370
-1
78
1
60
0
100
AcDbPolyline
90
4
70
1
38
0
39
0
10
20
20
-80
40
0
41
0
42
0
10
90
20
-70
40
0
41
0
42
0
10
60
20
-10
40
0
41
0
42
0
10
20
20
-40
40
0
41
0
42
0
210
0
220
0
230
1
0
POLYLINE
5
275
100
AcDbEntity
8
Layer2
62
256
6
ByLayer
370
-1
78
1
60
0
100
AcDbPolyFaceMesh
70
64
71
5
72
2
10
0
20
0
30
0
0
VERTEX
5
276
100
AcDbEntity
8
Layer2
100
AcDbVertex
100
AcDbPolyFaceMeshVertex
70
192
10
410
20
-90
30
0
0
VERTEX
5
277
100
AcDbEntity
8
Layer2
100
AcDbVertex
100
AcDbPolyFaceMeshVertex
70
192
10
490
20
-80
30
0
0
VERTEX
5
278
100
AcDbEntity
8
Layer2
100
AcDbVertex
100
AcDbPolyFaceMeshVertex
70
192
10
470
20
-50
30
0
0
VERTEX
5
279
100
AcDbEntity
8
Layer2
100
AcDbVertex
100
AcDbPolyFaceMeshVertex
70
192
10
490
20
-10
30
0
0
VERTEX
5
27A
100
AcDbEntity
8
Layer2
100
AcDbVertex
100
AcDbPolyFaceMeshVertex
70
192
10
420
20
-30
30
0
0
VERTEX
5
27B
100
AcDbEntity
8
Layer2
100
AcDbFaceRecord
70
128
10
0
20
0
30
0
71
1
72
2
73
3
74
-4
0
VERTEX
5
27C
100
AcDbEntity
8
Layer2
100
AcDbFaceRecord
70
128
10
0
20
0
30
0
71
-1
72
4
73
5
0
SEQEND
5
27D
100
AcDbEntity
8
Layer2
0
POLYLINE
5
27E
100
AcDbEntity
8
Layer2
62
256
6
ByLayer
370
-1
78
1
60
0
100
AcDb3dPolyline
10
0
20
0
30
0
70
8
75
0
0
VERTEX
5
280
100
AcDbEntity
8
Layer2
100
AcDbVertex
100
AcDb3dPolylineVertex
10
510
20
-90
30
0
70
32
0
VERTEX
5
281
100
AcDbEntity
8
Layer2
100
AcDbVertex
100
AcDb3dPolylineVertex
10
590
20
-80
30
50
70
32
0
VERTEX
5
282
100
AcDbEntity
8
Layer2
100
AcDbVertex
100
AcDb3dPolylineVertex
10
550
20
-50
30
0
70
32
0
VERTEX
5
283
100
AcDbEntity
8
Layer2
100
AcDbVertex
100
AcDb3dPolylineVertex
10
590
20
-10
30
50
70
32
0
VERTEX
5
284
100
AcDbEntity
8
Layer2
100
AcDbVertex
100
AcDb3dPolylineVertex
10
520
20
-20
30
0
70
32
0
SEQEND
5
27F
100
AcDbEntity
8
Layer2
0
TEXT
5
28F
100
AcDbEntity
8
Layer2
62
256
6
ByLayer
370
-1
78
1
60
0
100
AcDbText
1
This is a single line text
10
850
20
-50
30
0
40
5
41
1
50
0
51
0
7
MyTextStyle
11
850
21
-50
31
0
210
0
220
0
230
1
72
1
100
AcDbText
73
2
0
MTEXT
5
273
100
AcDbEntity
8
Layer2
62
256
6
ByLayer
370
-1
78
1
60
0
100
AcDbMText
10
210
20
-10
30
0
210
0
220
0
230
1
1
This is a sample multiline text. This is a sample multiline text.
40
7.5
41
80
44
1
50
0
71
1
72
5
7
Standard
1001
ACAD
1000
ACAD_MTEXT_COLUMN_INFO_BEGIN
1070
    75
1070
     2
1070
    79
1070
     0
1070
    76
1070
     1
1070
    78
1070
     0
1070
    48
1040
80.0
1070
    49
1040
12.5
1070
    50
1070
     1
1040
0.0
1000
ACAD_MTEXT_COLUMN_INFO_END
0
HATCH
5
240
100
AcDbEntity
8
Layer1
62
256
6
ByLayer
370
-1
78
1
60
0
100
AcDbHatch
10
0
20
0
30
0
210
0
220
0
230
1
2
LINE
70
0
71
0
91
1
92
5
93
4
72
1
10
520
20
20
11
590
21
30
72
1
10
590
20
30
11
560
21
90
72
1
10
560
20
90
11
520
21
60
72
1
10
520
20
60
11
520
21
20
97
0
75
1
76
1
52
45
41
1
77
0
78
1
53
45
43
0
44
0
45
-2.24506403026729
46
2.24506403026729
79
0
47
1
98
1
10
0
20
0
1001
GradientColor1ACI
1070
     5
1001
GradientColor2ACI
1070
     2
1001
ACAD
1010
0.0
1020
0.0
1030
0.0
0
HATCH
5
3E0
100
AcDbEntity
8
0
62
256
6
ByLayer
370
-1
78
1
60
0
100
AcDbHatch
10
0
20
0
30
0
210
0
220
0
230
1
2
SOLID
70
1
71
0
91
1
92
5
93
4
72
1
10
0
20
-350
11
100
21
-350
72
1
10
100
20
-350
11
100
21
-250
72
1
10
100
20
-250
11
0
21
-250
72
1
10
0
20
-250
11
0
21
-350
97
0
75
0
76
1
47
1
98
1
10
0
20
0
450
1
451
0
460
0
461
1
452
0
462
1
453
2
463
0
63
44
421
5005209
463
1
63
254
421
16044355
470
INVSPHERICAL
1001
GradientColor1ACI
1070
44
1001
ACAD
1010
0.0
1020
0.0
1030
0.0
1001
GradientColor2ACI
1070
254
0
HATCH
5
3E1
100
AcDbEntity
8
0
62
256
6
ByLayer
370
-1
78
1
60
0
100
AcDbHatch
10
0
20
0
30
0
210
0
220
0
230
1
2
SOLID
70
1
71
0
91
1
92
5
93
4
72
1
10
150
20
-350
11
250
21
-350
72
1
10
250
20
-350
11
250
21
-250
72
1
10
250
20
-250
11
150
21
-250
72
1
10
150
20
-250
11
150
21
-350
97
0
75
0
76
1
47
1
98
1
10
0
20
0
450
1
451
0
460
0.785398163397448
461
0
452
1
462
0.769999980926514
453
2
463
0
63
44
421
5005209
463
1
63
21
421
11582168
470
HEMISPHERICAL
1001
GradientColor1ACI
1070
44
1001
ACAD
1010
0.0
1020
0.0
1030
0.0
1001
GradientColor2ACI
1070
21
0
DIMENSION
5
22C
100
AcDbEntity
8
Layer1
62
256
6
ByLayer
370
-1
78
1
60
0
100
AcDbDimension
2
*D1
10
270
20
90
30
0
11
238.495709908714
21
61.5042900912862
31
0
70
33
71
5
72
1
41
1
210
0
220
0
230
1
3
ISO-25
100
AcDbAlignedDimension
13
220
23
20
33
0
14
280
24
80
34
0
0
IMAGE
5
249
100
AcDbEntity
8
Layer1
62
256
6
ByLayer
370
-1
78
1
60
0
100
AcDbRasterImage
10
610
20
10
30
0
11
0.307692307692308
21
0
31
0
12
0
22
0.307692307692308
32
0
13
260
23
260
340
247
70
7
280
0
281
50
282
50
283
0
71
1
91
2
14
-0.5
24
-0.5
14
259.5
24
259.5
0
MLINE
5
3A8
100
AcDbEntity
8
Layer2
62
256
6
ByLayer
370
-1
78
1
60
0
100
AcDbMline
2
STANDARD
340
18
40
20
70
0
71
1
72
2
73
2
10
110
20
-90
30
0
210
0
220
0
230
1
11
110
21
-90
31
0
12
0
22
1
32
0
13
-1
23
1.22464679914735E-16
33
0
74
2
41
0
41
0
75
0
74
4
41
-20
41
0
41
32.5
41
47.5
75
0
11
110
21
-10
31
0
12
0
22
1
32
0
13
-1
23
1.22464679914735E-16
33
0
74
2
41
0
41
0
75
0
74
2
41
-20
41
0
75
0
0
MLINE
5
3A9
100
AcDbEntity
8
Layer2
62
256
6
ByLayer
370
-1
78
1
60
0
100
AcDbMline
2
STANDARD
340
18
40
15
70
1
71
5
72
2
73
2
10
110
20
-50
30
0
210
0
220
0
230
1
11
110
21
-50
31
0
12
1
22
0
32
0
13
2.22044604925031E-16
23
1
33
0
74
2
41
7.5
41
20
75
0
74
2
41
-7.5
41
20
75
0
11
190
21
-50
31
0
12
1
22
0
32
0
13
2.22044604925031E-16
23
1
33
0
74
2
41
7.5
41
0
75
0
74
2
41
-7.5
41
0
75
0
0
ENDSEC
0
SECTION
2
OBJECTS
0
DICTIONARY
5
42e
330
0
100
AcDbDictionary
280
0
281
1
3
ACAD_GROUP
350
42f
3
ACAD_GROUP
350
430
3
ACAD_MLINESTYLE
350
431
3
ACAD_IMAGE_DICT
350
432
3
ACAD_IMAGE_VARS
350
246
0
DICTIONARY
5
42f
330
0
100
AcDbDictionary
280
0
281
1
0
DICTIONARY
5
430
330
0
100
AcDbDictionary
280
0
281
1
3
*A1
350
3D4
3
MYNAMEDGROUP
350
3D3
0
DICTIONARY
5
431
330
0
100
AcDbDictionary
280
0
281
1
3
STANDARD
350
18
0
DICTIONARY
5
432
330
0
100
AcDbDictionary
280
0
281
1
3
image
350
247
0
GROUP
5
3D4
330
430
100
AcDbGroup
300

70
1
71
1
340
3D1
340
3D0
0
GROUP
5
3D3
330
430
100
AcDbGroup
300

70
0
71
1
340
3CF
340
3CE
340
3CD
0
MLINESTYLE
5
18
330
431
100
AcDbMlineStyle
2
STANDARD
70
0
3

62
256
51
90
52
90
71
2
49
-0.5
62
256
6
ByLayer
49
0.5
62
256
6
ByLayer
0
RASTERVARIABLES
5
246
330
432
100
AcDbRasterVariables
90
0
70
1
71
1
72
1
0
IMAGEDEF_REACTOR
5
248
100
AcDbRasterImageDefReactor
90
2
330
249
0
IMAGEDEF
5
247
102
{ACAD_REACTORS
330
432
330
248
102
}
330
432
100
AcDbRasterImageDef
1
.\image.jpg
10
260
20
260
11
0.00100000007689469
21
0.00100000007689469
280
1
281
0
0
ENDSEC
0
EOF
